<svg width="44" height="44" viewBox="0 0 44 44" fill="none" xmlns="http://www.w3.org/2000/svg">
<rect width="43.8462" height="43.8462" rx="21.9231" fill="#2CC155"/>
<path d="M21.9233 12.2773C16.598 12.2773 12.2771 16.5982 12.2771 21.9235C12.2771 24.0559 12.9673 26.0199 14.1345 27.6192L12.9056 31.2554L16.7382 30.0602C18.2365 31.0141 20.0154 31.5697 21.9233 31.5697C27.2486 31.5697 31.5694 27.2488 31.5694 21.9235C31.5694 16.5982 27.2486 12.2773 21.9233 12.2773ZM26.3395 27.0973C24.5887 27.7988 22.5013 27.1198 20.2174 25.3858C17.9335 23.6519 16.4296 21.2109 16.3286 19.3983C16.2276 17.5858 17.7034 16.6711 18.5059 16.6768C19.3083 16.6824 20.1893 19.2468 20.2005 19.6396C20.2118 20.038 19.2185 20.7451 19.1792 21.0818C19.14 21.4185 20.5316 23.0795 21.1208 23.5284C21.7044 23.9717 22.9109 24.8247 23.5338 24.7461C24.151 24.6619 24.5607 23.4218 24.9535 23.3432C25.3463 23.2647 27.4899 24.3308 27.7031 24.6058C27.9164 24.8864 27.8939 26.4801 26.3395 27.0973Z" fill="white"/>
</svg>
